<svg width="28" height="28" viewBox="0 0 28 28" fill="none" xmlns="http://www.w3.org/2000/svg">
<path d="M24.9733 4.0727L15.8287 24.0245C15.7522 24.1917 15.6224 24.3287 15.4597 24.4143C15.297 24.4998 15.1106 24.529 14.9295 24.4973C14.7484 24.4657 14.583 24.3749 14.459 24.2391C14.335 24.1034 14.2595 23.9305 14.2443 23.7473L13.4712 14.4724L4.19634 13.6993C4.01316 13.6841 3.84019 13.6086 3.70448 13.4846C3.56876 13.3606 3.47797 13.1952 3.44628 13.0141C3.4146 12.8331 3.44381 12.6466 3.52936 12.4839C3.61491 12.3212 3.75197 12.1915 3.91909 12.1149L23.8709 2.97036C24.0252 2.89967 24.1973 2.87787 24.3643 2.90789C24.5313 2.9379 24.6851 3.01829 24.8051 3.13827C24.9251 3.25824 25.0055 3.41205 25.0355 3.57904C25.0655 3.74603 25.0437 3.91821 24.973 4.07245L24.9733 4.0727Z" fill="#080809"/>
</svg>
