<svg width="27" height="28" viewBox="0 0 27 28" fill="none" xmlns="http://www.w3.org/2000/svg">
<path d="M24.1782 4.0727L15.0336 24.0245C14.9571 24.1917 14.8274 24.3287 14.6647 24.4143C14.502 24.4998 14.3155 24.529 14.1345 24.4973C13.9534 24.4657 13.7879 24.3749 13.664 24.2391C13.54 24.1034 13.4645 23.9305 13.4493 23.7473L12.6762 14.4724L3.4013 13.6993C3.21812 13.6841 3.04514 13.6086 2.90943 13.4846C2.77372 13.3606 2.68292 13.1952 2.65124 13.0141C2.61955 12.8331 2.64877 12.6466 2.73432 12.4839C2.81987 12.3212 2.95692 12.1915 3.12405 12.1149L23.0759 2.97036C23.2301 2.89967 23.4023 2.87787 23.5693 2.90789C23.7363 2.9379 23.8901 3.01829 24.0101 3.13827C24.13 3.25824 24.2104 3.41205 24.2404 3.57904C24.2705 3.74603 24.2486 3.91821 24.178 4.07245L24.1782 4.0727Z" fill="#080809"/>
</svg>
