<svg width="73" height="24" viewBox="0 0 73 24" fill="none" xmlns="http://www.w3.org/2000/svg">
<path d="M4.1455 6.26539H5.54213L3.64272 0.678875H2.01465L0.115234 6.26539H1.51186L1.79119 5.38751H3.86618L4.1455 6.26539ZM2.17426 4.1904L2.82868 2.13935L3.4831 4.1904H2.17426Z" fill="white"/>
<path d="M8.36855 2.27502L7.53856 4.80491L6.70856 2.27502H5.38376L6.8602 6.26539H8.21692L9.69336 2.27502H8.36855Z" fill="white"/>
<path d="M12.8737 2.27502V2.65012C12.6104 2.34685 12.2193 2.16329 11.6846 2.16329C10.6391 2.16329 9.77722 3.08107 9.77722 4.2702C9.77722 5.45933 10.6391 6.37712 11.6846 6.37712C12.2193 6.37712 12.6104 6.19356 12.8737 5.89029V6.26539H14.0708V2.27502H12.8737ZM11.924 5.24385C11.3734 5.24385 10.9743 4.86876 10.9743 4.2702C10.9743 3.67165 11.3734 3.29655 11.924 3.29655C12.4747 3.29655 12.8737 3.67165 12.8737 4.2702C12.8737 4.86876 12.4747 5.24385 11.924 5.24385Z" fill="white"/>
<path d="M14.9491 6.26539H16.1462V0.439453H14.9491V6.26539Z" fill="white"/>
<path d="M17.6208 1.92387C18.0118 1.92387 18.339 1.59666 18.339 1.2056C18.339 0.814547 18.0118 0.487337 17.6208 0.487337C17.2297 0.487337 16.9025 0.814547 16.9025 1.2056C16.9025 1.59666 17.2297 1.92387 17.6208 1.92387ZM17.0222 6.26539H18.2193V2.27502H17.0222V6.26539Z" fill="white"/>
<path d="M21.4816 2.16329C20.9469 2.16329 20.5558 2.34685 20.2924 2.65012V0.678875H19.0953V6.26539H20.2924V5.89029C20.5558 6.19356 20.9469 6.37712 21.4816 6.37712C22.5271 6.37712 23.389 5.45933 23.389 4.2702C23.389 3.08107 22.5271 2.16329 21.4816 2.16329ZM21.2422 5.24385C20.6915 5.24385 20.2924 4.86876 20.2924 4.2702C20.2924 3.67165 20.6915 3.29655 21.2422 3.29655C21.7928 3.29655 22.1919 3.67165 22.1919 4.2702C22.1919 4.86876 21.7928 5.24385 21.2422 5.24385Z" fill="white"/>
<path d="M24.0677 6.26539H25.2648V0.439453H24.0677V6.26539Z" fill="white"/>
<path d="M27.2102 4.74905H30.0434C30.0753 4.59741 30.0913 4.4378 30.0913 4.2702C30.0913 3.06511 29.2294 2.16329 28.0642 2.16329C26.8032 2.16329 25.9413 3.08107 25.9413 4.2702C25.9413 5.45933 26.7873 6.37712 28.152 6.37712C28.9101 6.37712 29.5007 6.09779 29.8918 5.5551L28.9341 5.00443C28.7745 5.18001 28.4951 5.3077 28.1679 5.3077C27.729 5.3077 27.3619 5.16404 27.2102 4.74905ZM27.1863 3.85521C27.298 3.44819 27.6013 3.22473 28.0562 3.22473C28.4153 3.22473 28.7745 3.39232 28.9022 3.85521H27.1863Z" fill="white"/>
<path d="M34.6808 6.37712C35.854 6.37712 36.7957 5.45933 36.7957 4.2702C36.7957 3.08107 35.854 2.16329 34.6808 2.16329C33.5077 2.16329 32.5659 3.08107 32.5659 4.2702C32.5659 5.45933 33.5077 6.37712 34.6808 6.37712ZM34.6808 5.21193C34.1621 5.21193 33.763 4.83683 33.763 4.2702C33.763 3.70357 34.1621 3.32848 34.6808 3.32848C35.1996 3.32848 35.5986 3.70357 35.5986 4.2702C35.5986 4.83683 35.1996 5.21193 34.6808 5.21193Z" fill="white"/>
<path d="M39.8112 2.16329C39.2845 2.16329 38.8854 2.35483 38.6699 2.65012V2.27502H37.4728V6.26539H38.6699V4.08665C38.6699 3.52001 38.9732 3.26463 39.4122 3.26463C39.7952 3.26463 40.1065 3.49607 40.1065 3.99088V6.26539H41.3036V3.8153C41.3036 2.7379 40.6172 2.16329 39.8112 2.16329Z" fill="white"/>
<path d="M46.4592 3.42425V2.27502H45.6372V1.15772L44.4401 1.51685V2.27502H43.8016V3.42425H44.4401V4.83683C44.4401 5.95414 44.895 6.425 46.4592 6.26539V5.18001C45.9325 5.21193 45.6372 5.18001 45.6372 4.83683V3.42425H46.4592Z" fill="white"/>
<path d="M49.4754 2.16329C48.9486 2.16329 48.5496 2.35483 48.3341 2.65012V0.678875H47.137V6.26539H48.3341V4.08665C48.3341 3.52001 48.6374 3.26463 49.0763 3.26463C49.4594 3.26463 49.7706 3.49607 49.7706 3.99088V6.26539H50.9677V3.8153C50.9677 2.7379 50.2814 2.16329 49.4754 2.16329Z" fill="white"/>
<path d="M52.8592 4.74905H55.6924C55.7243 4.59741 55.7403 4.4378 55.7403 4.2702C55.7403 3.06511 54.8784 2.16329 53.7132 2.16329C52.4522 2.16329 51.5903 3.08107 51.5903 4.2702C51.5903 5.45933 52.4363 6.37712 53.801 6.37712C54.5591 6.37712 55.1497 6.09779 55.5408 5.5551L54.5831 5.00443C54.4235 5.18001 54.1441 5.3077 53.8169 5.3077C53.378 5.3077 53.0109 5.16404 52.8592 4.74905ZM52.8353 3.85521C52.947 3.44819 53.2503 3.22473 53.7052 3.22473C54.0643 3.22473 54.4235 3.39232 54.5512 3.85521H52.8353Z" fill="white"/>
<path d="M6.83235 20.8967H9.16006L5.99437 11.5859H3.28092L0.115234 20.8967H2.44295L2.90849 19.4336H6.36681L6.83235 20.8967ZM3.54695 17.4384L4.63765 14.02L5.72835 17.4384H3.54695Z" fill="white"/>
<path d="M13.8645 14.0599C12.9734 14.0599 12.3216 14.3658 11.8827 14.8713V14.2461H9.88747V23.557H11.8827V20.2716C12.3216 20.777 12.9734 21.0829 13.8645 21.0829C15.607 21.0829 17.0435 19.5533 17.0435 17.5714C17.0435 15.5895 15.607 14.0599 13.8645 14.0599ZM13.4655 19.1942C12.5477 19.1942 11.8827 18.569 11.8827 17.5714C11.8827 16.5738 12.5477 15.9487 13.4655 15.9487C14.3833 15.9487 15.0483 16.5738 15.0483 17.5714C15.0483 18.569 14.3833 19.1942 13.4655 19.1942Z" fill="white"/>
<path d="M22.1518 14.0599C21.2606 14.0599 20.6089 14.3658 20.1699 14.8713V14.2461H18.1747V23.557H20.1699V20.2716C20.6089 20.777 21.2606 21.0829 22.1518 21.0829C23.8943 21.0829 25.3308 19.5533 25.3308 17.5714C25.3308 15.5895 23.8943 14.0599 22.1518 14.0599ZM21.7528 19.1942C20.835 19.1942 20.1699 18.569 20.1699 17.5714C20.1699 16.5738 20.835 15.9487 21.7528 15.9487C22.6706 15.9487 23.3356 16.5738 23.3356 17.5714C23.3356 18.569 22.6706 19.1942 21.7528 19.1942Z" fill="white"/>
<path d="M26.462 20.8967H28.4572V11.1868H26.462V20.8967Z" fill="white"/>
<path d="M31.6996 18.3695H36.4215C36.4747 18.1168 36.5013 17.8507 36.5013 17.5714C36.5013 15.5629 35.0648 14.0599 33.1228 14.0599C31.0212 14.0599 29.5847 15.5895 29.5847 17.5714C29.5847 19.5533 30.9946 21.0829 33.2691 21.0829C34.5327 21.0829 35.517 20.6174 36.1688 19.7129L34.5727 18.7951C34.3066 19.0878 33.8411 19.3006 33.2957 19.3006C32.5642 19.3006 31.9523 19.0612 31.6996 18.3695ZM31.6597 16.8798C31.8459 16.2014 32.3514 15.829 33.1095 15.829C33.7081 15.829 34.3066 16.1083 34.5194 16.8798H31.6597Z" fill="white"/>
<path d="M44.2836 21.0829C46.3054 21.0829 47.7419 20.0188 47.7419 18.2232C47.7419 16.2546 46.159 15.7625 44.7491 15.3368C43.2993 14.8979 43.0732 14.6052 43.0732 14.1796C43.0732 13.8072 43.4057 13.4746 44.0708 13.4746C44.922 13.4746 45.361 13.887 45.6802 14.552L47.4759 13.5012C46.7975 12.1312 45.6004 11.3997 44.0708 11.3997C42.4613 11.3997 40.945 12.4371 40.945 14.2328C40.945 16.0152 42.3017 16.6802 43.685 17.066C45.0816 17.4517 45.6137 17.6778 45.6137 18.2498C45.6137 18.6089 45.361 19.0079 44.3501 19.0079C43.2993 19.0079 42.7273 18.4892 42.3948 17.7177L40.5592 18.7818C41.078 20.1519 42.3283 21.0829 44.2836 21.0829Z" fill="white"/>
<path d="M52.4414 16.1615V14.2461H51.0714V12.3839L49.0762 12.9825V14.2461H48.0121V16.1615H49.0762V18.5158C49.0762 20.378 49.8343 21.1627 52.4414 20.8967V19.0878C51.5635 19.141 51.0714 19.0878 51.0714 18.5158V16.1615H52.4414Z" fill="white"/>
<path d="M56.6334 21.0829C58.5887 21.0829 60.1583 19.5533 60.1583 17.5714C60.1583 15.5895 58.5887 14.0599 56.6334 14.0599C54.6782 14.0599 53.1086 15.5895 53.1086 17.5714C53.1086 19.5533 54.6782 21.0829 56.6334 21.0829ZM56.6334 19.141C55.7689 19.141 55.1038 18.5158 55.1038 17.5714C55.1038 16.627 55.7689 16.0019 56.6334 16.0019C57.498 16.0019 58.1631 16.627 58.1631 17.5714C58.1631 18.5158 57.498 19.141 56.6334 19.141Z" fill="white"/>
<path d="M63.282 15.4299V14.2461H61.2868V20.8967H63.282V17.8906C63.282 16.5738 64.4525 16.2413 65.2772 16.3743V14.1131C64.4392 14.1131 63.548 14.5387 63.282 15.4299Z" fill="white"/>
<path d="M67.7973 18.3695H72.5192C72.5725 18.1168 72.5991 17.8507 72.5991 17.5714C72.5991 15.5629 71.1625 14.0599 69.2206 14.0599C67.119 14.0599 65.6824 15.5895 65.6824 17.5714C65.6824 19.5533 67.0924 21.0829 69.3669 21.0829C70.6305 21.0829 71.6148 20.6174 72.2665 19.7129L70.6704 18.7951C70.4044 19.0878 69.9388 19.3006 69.3935 19.3006C68.6619 19.3006 68.05 19.0612 67.7973 18.3695ZM67.7574 16.8798C67.9436 16.2014 68.4491 15.829 69.2072 15.829C69.8058 15.829 70.4044 16.1083 70.6172 16.8798H67.7574Z" fill="white"/>
</svg>
